<svg width="110" height="24" viewBox="0 0 110 24" fill="none" xmlns="http://www.w3.org/2000/svg">
<path d="M1.43466 4.45455H4.65909L8.97727 14.9943H9.14773L13.4659 4.45455H16.6903V19H14.1619V9.0071H14.027L10.0071 18.9574H8.1179L4.09801 8.9858H3.96307V19H1.43466V4.45455ZM21.044 23.0909C20.6937 23.0909 20.3693 23.0625 20.071 23.0057C19.7775 22.9536 19.5431 22.892 19.3679 22.821L19.9645 20.8182C20.3385 20.9271 20.6723 20.9792 20.9659 20.9744C21.2595 20.9697 21.5175 20.8774 21.7401 20.6974C21.9673 20.5223 22.1591 20.2287 22.3153 19.8168L22.5355 19.2273L18.5795 8.09091H21.3068L23.821 16.3295H23.9347L26.456 8.09091H29.1903L24.8224 20.321C24.6188 20.8987 24.349 21.3935 24.0128 21.8054C23.6766 22.2221 23.2647 22.5393 22.777 22.7571C22.294 22.9796 21.7164 23.0909 21.044 23.0909ZM39.5916 10.9744L37.2479 11.2301C37.1816 10.9934 37.0656 10.7708 36.8999 10.5625C36.7389 10.3542 36.5211 10.1861 36.2464 10.0582C35.9718 9.9304 35.6357 9.86648 35.2379 9.86648C34.7029 9.86648 34.2531 9.98248 33.8885 10.2145C33.5286 10.4465 33.3511 10.7472 33.3558 11.1165C33.3511 11.4337 33.4671 11.6918 33.7038 11.8906C33.9453 12.0895 34.343 12.2528 34.897 12.3807L36.7578 12.7784C37.79 13.0009 38.5571 13.3537 39.0589 13.8366C39.5656 14.3196 39.8213 14.9517 39.826 15.733C39.8213 16.4195 39.62 17.0256 39.2223 17.5511C38.8293 18.072 38.2824 18.4792 37.5817 18.7727C36.8809 19.0663 36.076 19.2131 35.1669 19.2131C33.8317 19.2131 32.7569 18.9337 31.9425 18.375C31.1281 17.8116 30.6428 17.0279 30.4865 16.0241L32.9936 15.7827C33.1072 16.2751 33.3487 16.6468 33.718 16.8977C34.0874 17.1487 34.5679 17.2741 35.1598 17.2741C35.7706 17.2741 36.2607 17.1487 36.63 16.8977C37.004 16.6468 37.1911 16.3366 37.1911 15.9673C37.1911 15.6548 37.0703 15.3968 36.8288 15.1932C36.5921 14.9896 36.2228 14.8333 35.7209 14.7244L33.8601 14.3338C32.8137 14.116 32.0395 13.7491 31.5376 13.233C31.0357 12.7121 30.7872 12.054 30.7919 11.2585C30.7872 10.5862 30.9695 10.0038 31.3388 9.51136C31.7128 9.0142 32.2313 8.63068 32.8942 8.3608C33.5618 8.08617 34.3312 7.94886 35.2024 7.94886C36.4808 7.94886 37.487 8.22112 38.2209 8.76562C38.9595 9.31013 39.4164 10.0464 39.5916 10.9744ZM47.3935 8.09091V10.0795H41.1222V8.09091H47.3935ZM42.6705 5.47727H45.2415V15.7188C45.2415 16.0644 45.2936 16.3295 45.3977 16.5142C45.5066 16.6941 45.6487 16.8172 45.8239 16.8835C45.9991 16.9498 46.1932 16.983 46.4062 16.983C46.5672 16.983 46.714 16.9711 46.8466 16.9474C46.9839 16.9238 47.0881 16.9025 47.1591 16.8835L47.5923 18.8935C47.455 18.9408 47.2585 18.9929 47.0028 19.0497C46.7519 19.1065 46.4441 19.1397 46.0795 19.1491C45.4356 19.1681 44.8556 19.071 44.3395 18.858C43.8234 18.6402 43.4138 18.304 43.1108 17.8494C42.8125 17.3949 42.6657 16.8267 42.6705 16.1449V5.47727ZM54.256 19.2131C53.1623 19.2131 52.2177 18.9858 51.4222 18.5312C50.6315 18.072 50.0231 17.4233 49.5969 16.5852C49.1708 15.7424 48.9577 14.7505 48.9577 13.6094C48.9577 12.4872 49.1708 11.5024 49.5969 10.6548C50.0278 9.80256 50.6291 9.13968 51.4009 8.66619C52.1727 8.18797 53.0794 7.94886 54.1211 7.94886C54.7934 7.94886 55.4279 8.05777 56.0245 8.27557C56.6258 8.48864 57.1561 8.82008 57.6154 9.26989C58.0794 9.7197 58.444 10.2926 58.7092 10.9886C58.9743 11.6799 59.1069 12.5038 59.1069 13.4602V14.2486H50.1651V12.5156H56.6424C56.6377 12.0232 56.5311 11.5852 56.3228 11.2017C56.1145 10.8134 55.8233 10.508 55.4492 10.2855C55.0799 10.063 54.649 9.9517 54.1566 9.9517C53.631 9.9517 53.1694 10.0795 52.7717 10.3352C52.3739 10.5862 52.0638 10.9176 51.8413 11.3295C51.6235 11.7367 51.5122 12.1842 51.5075 12.6719V14.1847C51.5075 14.8191 51.6235 15.3636 51.8555 15.8182C52.0875 16.268 52.4118 16.6136 52.8285 16.8551C53.2451 17.0919 53.7328 17.2102 54.2915 17.2102C54.6656 17.2102 55.0041 17.1581 55.3072 17.054C55.6102 16.9451 55.873 16.7865 56.0955 16.5781C56.3181 16.3698 56.4862 16.1117 56.5998 15.804L59.0004 16.0739C58.8488 16.7083 58.56 17.2623 58.1339 17.7358C57.7125 18.2045 57.1727 18.5691 56.5146 18.8295C55.8564 19.0852 55.1036 19.2131 54.256 19.2131ZM61.282 19V8.09091H63.7749V9.90909H63.8885C64.0874 9.27936 64.4283 8.79403 64.9112 8.45312C65.3989 8.10748 65.9553 7.93466 66.5803 7.93466C66.7223 7.93466 66.8809 7.94176 67.0561 7.95597C67.236 7.96544 67.3852 7.98201 67.5036 8.00568V10.3707C67.3946 10.3329 67.2218 10.2997 66.9851 10.2713C66.7531 10.2382 66.5282 10.2216 66.3104 10.2216C65.8416 10.2216 65.4202 10.3234 65.0462 10.527C64.6768 10.7259 64.3857 11.0028 64.1726 11.358C63.9595 11.7131 63.853 12.1226 63.853 12.5866V19H61.282ZM71.1417 23.0909C70.7913 23.0909 70.467 23.0625 70.1687 23.0057C69.8751 22.9536 69.6407 22.892 69.4656 22.821L70.0621 20.8182C70.4362 20.9271 70.77 20.9792 71.0636 20.9744C71.3571 20.9697 71.6152 20.8774 71.8377 20.6974C72.065 20.5223 72.2567 20.2287 72.413 19.8168L72.6332 19.2273L68.6772 8.09091H71.4045L73.9187 16.3295H74.0323L76.5536 8.09091H79.288L74.9201 20.321C74.7165 20.8987 74.4466 21.3935 74.1104 21.8054C73.7743 22.2221 73.3623 22.5393 72.8746 22.7571C72.3917 22.9796 71.814 23.0909 71.1417 23.0909Z" fill="white"/>
<path d="M84 0L85.3505 3.64955L89 5L85.3505 6.35045L84 10L82.6495 6.35045L79 5L82.6495 3.64955L84 0Z" fill="#FFDF00"/>
<path d="M85 15L85.8103 17.1897L88 18L85.8103 18.8103L85 21L84.1897 18.8103L82 18L84.1897 17.1897L85 15Z" fill="#FFDF00"/>
<path d="M99 0L101.971 8.029L110 11L101.971 13.971L99 22L96.029 13.971L88 11L96.029 8.029L99 0Z" fill="#FFDF00"/>
</svg>
