<svg width="24" height="24" viewBox="0 0 24 24" fill="none" xmlns="http://www.w3.org/2000/svg">
<path fill-rule="evenodd" clip-rule="evenodd" d="M12 24C18.6274 24 24 18.6274 24 12C24 5.37258 18.6274 0 12 0C5.37258 0 0 5.37258 0 12C0 18.6274 5.37258 24 12 24ZM14.022 20.772C17.369 20.0036 20.0036 17.369 20.772 14.022L18.75 12L20.772 9.97803C20.0036 6.63104 17.369 3.99638 14.022 3.22803L12 5.25L9.97803 3.22803C6.63104 3.99638 3.99638 6.63104 3.22803 9.97803L5.25 12L3.22803 14.022C3.99638 17.369 6.63104 20.0036 9.97803 20.772L12 18.75L14.022 20.772ZM22 12C22 17.5228 17.5228 22 12 22C6.47715 22 2 17.5228 2 12C2 6.47715 6.47715 2 12 2C17.5228 2 22 6.47715 22 12ZM10.1998 11.9999C10.1998 11.0058 11.0057 10.1999 11.9998 10.1999C12.9939 10.1999 13.7998 11.0058 13.7998 11.9999C13.7998 12.994 12.9939 13.7999 11.9998 13.7999C11.0057 13.7999 10.1998 12.994 10.1998 11.9999ZM11.9998 9.19989C13.5462 9.19989 14.7998 10.4535 14.7998 11.9999C14.7998 13.5463 13.5462 14.7999 11.9998 14.7999C10.4534 14.7999 9.19981 13.5463 9.19981 11.9999C9.19981 10.4535 10.4534 9.19989 11.9998 9.19989Z" fill="#FFC700"/>
</svg>
