<svg width="24" height="24" viewBox="0 0 24 24" fill="none" xmlns="http://www.w3.org/2000/svg">
<path d="M12.0377 7.34998C9.4877 7.34998 7.3877 9.44998 7.3877 12C7.3877 14.5875 9.4877 16.65 12.0377 16.65C14.5877 16.65 16.6877 14.5875 16.6877 12C16.6877 9.44998 14.5877 7.34998 12.0377 7.34998ZM12.0377 15C10.3877 15 9.0752 13.6499 9.0752 12.0374C9.0752 10.3874 10.3877 9.07498 12.0377 9.07498C13.6877 9.07498 15.0002 10.3875 15.0002 12C15.0002 13.65 13.6502 15 12.0377 15Z" fill="#7591F3"/>
<path d="M22.7627 14.2875L20.6627 13.125C20.7377 12.7125 20.7752 12.3 20.7752 11.8875C20.7752 11.4375 20.7377 11.025 20.7002 10.6125L22.8377 9.41245C23.3252 9.14995 23.5127 8.54995 23.2877 8.02495L21.1127 4.34995C20.8502 3.89995 20.2502 3.71245 19.7627 3.89995L17.5127 5.13745C17.4002 5.06245 17.2877 4.94995 17.2127 4.87495C16.8002 4.53745 16.4252 4.19995 15.8252 3.89995C15.7877 3.89995 15.7502 3.86245 15.7502 3.78745V2.43745C15.7502 1.46245 14.9627 0.637451 13.9502 0.637451H10.0877C9.11272 0.637451 8.28772 1.46245 8.28772 2.43745V3.89995C8.28772 3.93745 8.25022 3.97495 8.21272 4.01245C7.65022 4.27495 7.23772 4.64995 6.78772 4.98745C6.71272 5.06245 6.60022 5.13745 6.52522 5.21245L4.53772 4.08745C3.78772 3.67495 3.15022 3.93745 2.88772 4.38745L0.825227 7.94995C0.712727 8.24995 0.675227 8.54995 0.750227 8.84995C0.825227 9.14995 1.01272 9.37495 1.27522 9.52495L3.37522 10.65C3.30022 11.025 3.30022 11.4375 3.30022 11.925C3.30022 12.3375 3.33772 12.75 3.37522 13.1625L1.20022 14.3625C0.712727 14.625 0.525227 15.225 0.750227 15.75L2.92522 19.4249C3.18772 19.8749 3.75022 20.0625 4.27522 19.875L6.52522 18.6375C6.63772 18.7125 6.71272 18.7875 6.82522 18.9C7.23772 19.275 7.65022 19.6125 8.25022 19.875C8.28772 19.875 8.32522 19.9124 8.32522 19.9874V21.6C8.32522 22.575 9.11272 23.4 10.1252 23.4H13.9502C14.9252 23.4 15.7502 22.575 15.7502 21.6V19.875C15.7502 19.8375 15.7877 19.8 15.8252 19.7625C16.3877 19.5 16.7627 19.1625 17.2127 18.7875C17.3252 18.7125 17.4002 18.6375 17.5127 18.525L19.5002 19.65C20.2502 20.0625 20.8502 19.8 21.1502 19.35L23.2502 15.7875C23.4002 15.525 23.4377 15.225 23.3627 14.9625C23.2877 14.7 23.0252 14.4375 22.7627 14.2875ZM19.9127 18L18.1127 16.9874C17.5877 16.6874 16.9877 16.7625 16.5377 17.1375C16.3502 17.2875 16.2002 17.3999 16.0502 17.5499C15.6752 17.8874 15.4127 18.1125 15.0377 18.2625C14.4377 18.5625 14.0252 19.2 14.0252 19.875V21.525C14.0252 21.6 13.9877 21.6375 13.9127 21.6375H10.0877C10.0127 21.6375 9.97522 21.6 9.97522 21.525V19.9125C9.97522 19.2375 9.56272 18.5999 8.96272 18.2999C8.58772 18.1124 8.28772 17.8874 7.91272 17.5499C7.76272 17.4374 7.61272 17.2874 7.42522 17.1749C7.16272 16.9874 6.86272 16.875 6.52522 16.875C6.30022 16.875 6.03772 16.95 5.81272 17.0625L4.01272 18.075L2.51272 15.525L4.27522 14.55C4.80022 14.25 5.10022 13.6875 5.02522 13.05C4.98772 12.675 4.95022 12.3 4.95022 11.925C4.95022 11.5125 4.98772 11.1375 5.02522 10.8375C5.13772 10.2 4.83772 9.56245 4.27522 9.26245L2.62522 8.32495L4.08772 5.81245L5.88772 6.82495C6.41272 7.12495 7.01272 7.04995 7.46272 6.67495C7.61272 6.56245 7.76272 6.41245 7.91272 6.29995C8.28772 5.96245 8.58772 5.73745 8.96272 5.54995C9.60022 5.24995 9.97522 4.61245 9.97522 3.93745V2.47495C9.97522 2.39995 10.0127 2.36245 10.0877 2.36245H13.9127C13.9877 2.36245 14.0252 2.39995 14.0252 2.47495V3.89995C14.0252 4.57495 14.4377 5.21245 15.0377 5.51245C15.4127 5.69995 15.6752 5.92495 16.0502 6.22495C16.2002 6.37495 16.3502 6.48745 16.5377 6.63745C16.9877 7.01245 17.6252 7.04995 18.1127 6.74995L19.9127 5.73745L21.4127 8.28745L19.6877 9.26245C19.1627 9.56245 18.8627 10.2 18.9752 10.8375C19.0127 11.175 19.0502 11.55 19.0502 11.925C19.0502 12.3 19.0127 12.675 18.9377 13.05C18.8252 13.6875 19.1252 14.2875 19.6877 14.5875L21.3752 15.525L19.9127 18Z" fill="#7591F3"/>
</svg>
